{
    "asset" : {
        "generator" : "Khronos glTF Blender I/O v1.5.17",
        "version" : "2.0"
    },
    "scene" : 0,
    "scenes" : [
        {
            "name" : "Scene",
            "nodes" : [
                0,
                1,
                2,
                3,
                4
            ]
        }
    ],
    "nodes" : [
        {
            "name" : "Light",
            "rotation" : [
                0.16907575726509094,
                0.7558803558349609,
                -0.27217137813568115,
                0.570947527885437
            ],
            "translation" : [
                4.042224884033203,
                -1.4342436790466309,
                -1.0054539442062378
            ]
        },
        {
            "name" : "Camera",
            "rotation" : [
                0.483536034822464,
                0.33687159419059753,
                -0.20870360732078552,
                0.7804827094078064
            ],
            "translation" : [
                6.171530246734619,
                10.473112106323242,
                7.497467041015625
            ]
        },
        {
            "mesh" : 0,
            "name" : "Zylinder",
            "translation" : [
                0,
                1.6181058883666992,
                0
            ]
        },
        {
            "mesh" : 1,
            "name" : "Zylinder.001",
            "translation" : [
                0,
                1.4885187149047852,
                0
            ]
        },
        {
            "name" : "Point",
            "translation" : [
                -7.114715099334717,
                8.977794647216797,
                -3.376235008239746
            ]
        }
    ],
    "animations" : [
        {
            "channels" : [
                {
                    "sampler" : 0,
                    "target" : {
                        "node" : 2,
                        "path" : "translation"
                    }
                },
                {
                    "sampler" : 1,
                    "target" : {
                        "node" : 2,
                        "path" : "rotation"
                    }
                },
                {
                    "sampler" : 2,
                    "target" : {
                        "node" : 2,
                        "path" : "scale"
                    }
                }
            ],
            "name" : "ZylinderAction",
            "samplers" : [
                {
                    "input" : 14,
                    "interpolation" : "LINEAR",
                    "output" : 15
                },
                {
                    "input" : 14,
                    "interpolation" : "LINEAR",
                    "output" : 16
                },
                {
                    "input" : 14,
                    "interpolation" : "LINEAR",
                    "output" : 17
                }
            ]
        }
    ],
    "materials" : [
        {
            "doubleSided" : true,
            "name" : "Material.007",
            "pbrMetallicRoughness" : {
                "baseColorFactor" : [
                    0.6156049370765686,
                    0.6981387138366699,
                    0.8000000715255737,
                    0.748031497001648
                ],
                "metallicFactor" : 0,
                "roughnessFactor" : 0.5
            }
        },
        {
            "doubleSided" : true,
            "name" : "Gummi",
            "pbrMetallicRoughness" : {}
        },
        {
            "doubleSided" : true,
            "name" : "Material.004",
            "pbrMetallicRoughness" : {
                "baseColorFactor" : [
                    0.800000011920929,
                    0.800000011920929,
                    0.800000011920929,
                    0.35433071851730347
                ],
                "metallicFactor" : 0,
                "roughnessFactor" : 0.5
            }
        }
    ],
    "meshes" : [
        {
            "name" : "Zylinder",
            "primitives" : [
                {
                    "attributes" : {
                        "POSITION" : 0,
                        "NORMAL" : 1,
                        "TEXCOORD_0" : 2,
                        "COLOR_0" : 3
                    },
                    "indices" : 4,
                    "material" : 0
                },
                {
                    "attributes" : {
                        "POSITION" : 5,
                        "NORMAL" : 6,
                        "TEXCOORD_0" : 7,
                        "COLOR_0" : 8
                    },
                    "indices" : 9,
                    "material" : 1
                }
            ]
        },
        {
            "name" : "Zylinder.001",
            "primitives" : [
                {
                    "attributes" : {
                        "POSITION" : 10,
                        "NORMAL" : 11,
                        "TEXCOORD_0" : 12
                    },
                    "indices" : 13,
                    "material" : 2
                }
            ]
        }
    ],
    "accessors" : [
        {
            "bufferView" : 0,
            "componentType" : 5126,
            "count" : 578,
            "max" : [
                1.1971969604492188,
                1.8586905002593994,
                1.1722283363342285
            ],
            "min" : [
                -1.161489486694336,
                -3.5678281784057617,
                -1.1864573955535889
            ],
            "type" : "VEC3"
        },
        {
            "bufferView" : 1,
            "componentType" : 5126,
            "count" : 578,
            "type" : "VEC3"
        },
        {
            "bufferView" : 2,
            "componentType" : 5126,
            "count" : 578,
            "type" : "VEC2"
        },
        {
            "bufferView" : 3,
            "componentType" : 5123,
            "count" : 578,
            "normalized" : true,
            "type" : "VEC4"
        },
        {
            "bufferView" : 4,
            "componentType" : 5123,
            "count" : 1050,
            "type" : "SCALAR"
        },
        {
            "bufferView" : 5,
            "componentType" : 5126,
            "count" : 288,
            "max" : [
                0.8090314865112305,
                2.8394079208374023,
                0.8173549175262451
            ],
            "min" : [
                -0.8209328651428223,
                1.8283751010894775,
                -0.8126091957092285
            ],
            "type" : "VEC3"
        },
        {
            "bufferView" : 6,
            "componentType" : 5126,
            "count" : 288,
            "type" : "VEC3"
        },
        {
            "bufferView" : 7,
            "componentType" : 5126,
            "count" : 288,
            "type" : "VEC2"
        },
        {
            "bufferView" : 8,
            "componentType" : 5123,
            "count" : 288,
            "normalized" : true,
            "type" : "VEC4"
        },
        {
            "bufferView" : 9,
            "componentType" : 5123,
            "count" : 474,
            "type" : "SCALAR"
        },
        {
            "bufferView" : 10,
            "componentType" : 5126,
            "count" : 1638,
            "max" : [
                1.2646002769470215,
                3.747251033782959,
                1.9571795463562012
            ],
            "min" : [
                -1.2714762687683105,
                -2.689889907836914,
                -1.96030855178833
            ],
            "type" : "VEC3"
        },
        {
            "bufferView" : 11,
            "componentType" : 5126,
            "count" : 1638,
            "type" : "VEC3"
        },
        {
            "bufferView" : 12,
            "componentType" : 5126,
            "count" : 1638,
            "type" : "VEC2"
        },
        {
            "bufferView" : 13,
            "componentType" : 5123,
            "count" : 2688,
            "type" : "SCALAR"
        },
        {
            "bufferView" : 14,
            "componentType" : 5126,
            "count" : 60,
            "max" : [
                2.5
            ],
            "min" : [
                0.041666666666666664
            ],
            "type" : "SCALAR"
        },
        {
            "bufferView" : 15,
            "componentType" : 5126,
            "count" : 60,
            "type" : "VEC3"
        },
        {
            "bufferView" : 16,
            "componentType" : 5126,
            "count" : 60,
            "type" : "VEC4"
        },
        {
            "bufferView" : 17,
            "componentType" : 5126,
            "count" : 60,
            "type" : "VEC3"
        }
    ],
    "bufferViews" : [
        {
            "buffer" : 0,
            "byteLength" : 6936,
            "byteOffset" : 0
        },
        {
            "buffer" : 0,
            "byteLength" : 6936,
            "byteOffset" : 6936
        },
        {
            "buffer" : 0,
            "byteLength" : 4624,
            "byteOffset" : 13872
        },
        {
            "buffer" : 0,
            "byteLength" : 4624,
            "byteOffset" : 18496
        },
        {
            "buffer" : 0,
            "byteLength" : 2100,
            "byteOffset" : 23120
        },
        {
            "buffer" : 0,
            "byteLength" : 3456,
            "byteOffset" : 25220
        },
        {
            "buffer" : 0,
            "byteLength" : 3456,
            "byteOffset" : 28676
        },
        {
            "buffer" : 0,
            "byteLength" : 2304,
            "byteOffset" : 32132
        },
        {
            "buffer" : 0,
            "byteLength" : 2304,
            "byteOffset" : 34436
        },
        {
            "buffer" : 0,
            "byteLength" : 948,
            "byteOffset" : 36740
        },
        {
            "buffer" : 0,
            "byteLength" : 19656,
            "byteOffset" : 37688
        },
        {
            "buffer" : 0,
            "byteLength" : 19656,
            "byteOffset" : 57344
        },
        {
            "buffer" : 0,
            "byteLength" : 13104,
            "byteOffset" : 77000
        },
        {
            "buffer" : 0,
            "byteLength" : 5376,
            "byteOffset" : 90104
        },
        {
            "buffer" : 0,
            "byteLength" : 240,
            "byteOffset" : 95480
        },
        {
            "buffer" : 0,
            "byteLength" : 720,
            "byteOffset" : 95720
        },
        {
            "buffer" : 0,
            "byteLength" : 960,
            "byteOffset" : 96440
        },
        {
            "buffer" : 0,
            "byteLength" : 720,
            "byteOffset" : 97400
        }
    ],
    "buffers" : [
        {
            "byteLength" : 98120,
            "uri" : "data:application/octet-stream;base64,"
        }
    ]
}
