{
    "asset" : {
        "generator" : "Khronos glTF Blender I/O v1.5.17",
        "version" : "2.0"
    },
    "scene" : 0,
    "scenes" : [
        {
            "name" : "Scene",
            "nodes" : [
                0,
                1,
                2,
                3,
                6
            ]
        }
    ],
    "nodes" : [
        {
            "name" : "Light",
            "rotation" : [
                0.16907575726509094,
                0.7558803558349609,
                -0.27217137813568115,
                0.570947527885437
            ],
            "translation" : [
                4.042224884033203,
                -1.4342436790466309,
                -1.0054539442062378
            ]
        },
        {
            "name" : "Camera",
            "rotation" : [
                0.483536034822464,
                0.33687159419059753,
                -0.20870360732078552,
                0.7804827094078064
            ],
            "translation" : [
                6.171530246734619,
                10.473112106323242,
                7.497467041015625
            ]
        },
        {
            "mesh" : 0,
            "name" : "Zylinder.001",
            "translation" : [
                -0.034020423889160156,
                -1.0730562210083008,
                0
            ]
        },
        {
            "name" : "Point",
            "translation" : [
                -7.114715099334717,
                8.977794647216797,
                -3.376235008239746
            ]
        },
        {
            "mesh" : 1,
            "name" : "Zylinder",
            "rotation" : [
                0,
                0,
                0,
                1
            ],
            "scale" : [
                0.15124253928661346,
                0.15124253928661346,
                0.15124253928661346
            ],
            "translation" : [
                -0.5991533994674683,
                0.7491239905357361,
                0.368632435798645
            ]
        },
        {
            "children" : [
                4
            ],
            "name" : "Bone"
        },
        {
            "children" : [
                5
            ],
            "name" : "Skelett",
            "scale" : [
                6.611896514892578,
                6.611896514892578,
                6.611896514892578
            ],
            "translation" : [
                -7.422677516937256,
                -1.593689203262329,
                -3.993790864944458
            ]
        }
    ],
    "animations" : [
        {
            "channels" : [
                {
                    "sampler" : 0,
                    "target" : {
                        "node" : 5,
                        "path" : "translation"
                    }
                },
                {
                    "sampler" : 1,
                    "target" : {
                        "node" : 5,
                        "path" : "rotation"
                    }
                },
                {
                    "sampler" : 2,
                    "target" : {
                        "node" : 5,
                        "path" : "scale"
                    }
                },
                {
                    "sampler" : 3,
                    "target" : {
                        "node" : 6,
                        "path" : "translation"
                    }
                },
                {
                    "sampler" : 4,
                    "target" : {
                        "node" : 6,
                        "path" : "rotation"
                    }
                },
                {
                    "sampler" : 5,
                    "target" : {
                        "node" : 6,
                        "path" : "scale"
                    }
                }
            ],
            "name" : "SkelettAction",
            "samplers" : [
                {
                    "input" : 12,
                    "interpolation" : "LINEAR",
                    "output" : 13
                },
                {
                    "input" : 12,
                    "interpolation" : "LINEAR",
                    "output" : 14
                },
                {
                    "input" : 12,
                    "interpolation" : "LINEAR",
                    "output" : 15
                },
                {
                    "input" : 12,
                    "interpolation" : "LINEAR",
                    "output" : 16
                },
                {
                    "input" : 12,
                    "interpolation" : "LINEAR",
                    "output" : 17
                },
                {
                    "input" : 12,
                    "interpolation" : "LINEAR",
                    "output" : 18
                }
            ]
        }
    ],
    "materials" : [
        {
            "doubleSided" : true,
            "name" : "Material.004",
            "pbrMetallicRoughness" : {
                "baseColorFactor" : [
                    0.800000011920929,
                    0.800000011920929,
                    0.800000011920929,
                    0.35433071851730347
                ],
                "metallicFactor" : 0,
                "roughnessFactor" : 0.5
            }
        },
        {
            "doubleSided" : true,
            "name" : "Material.007",
            "pbrMetallicRoughness" : {
                "baseColorFactor" : [
                    0.6156049370765686,
                    0.6981387138366699,
                    0.8000000715255737,
                    0.748031497001648
                ],
                "metallicFactor" : 0,
                "roughnessFactor" : 0.5
            }
        },
        {
            "doubleSided" : true,
            "name" : "Gummi",
            "pbrMetallicRoughness" : {}
        }
    ],
    "meshes" : [
        {
            "name" : "Zylinder.001",
            "primitives" : [
                {
                    "attributes" : {
                        "POSITION" : 0,
                        "NORMAL" : 1,
                        "TEXCOORD_0" : 2
                    },
                    "indices" : 3,
                    "material" : 0
                }
            ]
        },
        {
            "name" : "Zylinder",
            "primitives" : [
                {
                    "attributes" : {
                        "POSITION" : 4,
                        "NORMAL" : 5,
                        "TEXCOORD_0" : 6
                    },
                    "indices" : 7,
                    "material" : 1
                },
                {
                    "attributes" : {
                        "POSITION" : 8,
                        "NORMAL" : 9,
                        "TEXCOORD_0" : 10
                    },
                    "indices" : 11,
                    "material" : 2
                }
            ]
        }
    ],
    "accessors" : [
        {
            "bufferView" : 0,
            "componentType" : 5126,
            "count" : 1636,
            "max" : [
                -6.0092620849609375,
                6.308825969696045,
                -2.008553981781006
            ],
            "min" : [
                -8.54533863067627,
                -0.12831491231918335,
                -5.926042079925537
            ],
            "type" : "VEC3"
        },
        {
            "bufferView" : 1,
            "componentType" : 5126,
            "count" : 1636,
            "type" : "VEC3"
        },
        {
            "bufferView" : 2,
            "componentType" : 5126,
            "count" : 1636,
            "type" : "VEC2"
        },
        {
            "bufferView" : 3,
            "componentType" : 5123,
            "count" : 2688,
            "type" : "SCALAR"
        },
        {
            "bufferView" : 4,
            "componentType" : 5126,
            "count" : 578,
            "max" : [
                5.253039836883545,
                0.14362072944641113,
                -1.2204930782318115
            ],
            "min" : [
                2.8943533897399902,
                -5.28289794921875,
                -3.579178810119629
            ],
            "type" : "VEC3"
        },
        {
            "bufferView" : 5,
            "componentType" : 5126,
            "count" : 578,
            "type" : "VEC3"
        },
        {
            "bufferView" : 6,
            "componentType" : 5126,
            "count" : 578,
            "type" : "VEC2"
        },
        {
            "bufferView" : 7,
            "componentType" : 5123,
            "count" : 1050,
            "type" : "SCALAR"
        },
        {
            "bufferView" : 8,
            "componentType" : 5126,
            "count" : 288,
            "max" : [
                4.864874362945557,
                1.1243382692337036,
                -1.575366497039795
            ],
            "min" : [
                3.234910011291504,
                0.11330537497997284,
                -3.2053306102752686
            ],
            "type" : "VEC3"
        },
        {
            "bufferView" : 9,
            "componentType" : 5126,
            "count" : 288,
            "type" : "VEC3"
        },
        {
            "bufferView" : 10,
            "componentType" : 5126,
            "count" : 288,
            "type" : "VEC2"
        },
        {
            "bufferView" : 11,
            "componentType" : 5123,
            "count" : 474,
            "type" : "SCALAR"
        },
        {
            "bufferView" : 12,
            "componentType" : 5126,
            "count" : 61,
            "max" : [
                2.5
            ],
            "min" : [
                0
            ],
            "type" : "SCALAR"
        },
        {
            "bufferView" : 13,
            "componentType" : 5126,
            "count" : 61,
            "type" : "VEC3"
        },
        {
            "bufferView" : 14,
            "componentType" : 5126,
            "count" : 61,
            "type" : "VEC4"
        },
        {
            "bufferView" : 15,
            "componentType" : 5126,
            "count" : 61,
            "type" : "VEC3"
        },
        {
            "bufferView" : 16,
            "componentType" : 5126,
            "count" : 61,
            "type" : "VEC3"
        },
        {
            "bufferView" : 17,
            "componentType" : 5126,
            "count" : 61,
            "type" : "VEC4"
        },
        {
            "bufferView" : 18,
            "componentType" : 5126,
            "count" : 61,
            "type" : "VEC3"
        }
    ],
    "bufferViews" : [
        {
            "buffer" : 0,
            "byteLength" : 19632,
            "byteOffset" : 0
        },
        {
            "buffer" : 0,
            "byteLength" : 19632,
            "byteOffset" : 19632
        },
        {
            "buffer" : 0,
            "byteLength" : 13088,
            "byteOffset" : 39264
        },
        {
            "buffer" : 0,
            "byteLength" : 5376,
            "byteOffset" : 52352
        },
        {
            "buffer" : 0,
            "byteLength" : 6936,
            "byteOffset" : 57728
        },
        {
            "buffer" : 0,
            "byteLength" : 6936,
            "byteOffset" : 64664
        },
        {
            "buffer" : 0,
            "byteLength" : 4624,
            "byteOffset" : 71600
        },
        {
            "buffer" : 0,
            "byteLength" : 2100,
            "byteOffset" : 76224
        },
        {
            "buffer" : 0,
            "byteLength" : 3456,
            "byteOffset" : 78324
        },
        {
            "buffer" : 0,
            "byteLength" : 3456,
            "byteOffset" : 81780
        },
        {
            "buffer" : 0,
            "byteLength" : 2304,
            "byteOffset" : 85236
        },
        {
            "buffer" : 0,
            "byteLength" : 948,
            "byteOffset" : 87540
        },
        {
            "buffer" : 0,
            "byteLength" : 244,
            "byteOffset" : 88488
        },
        {
            "buffer" : 0,
            "byteLength" : 732,
            "byteOffset" : 88732
        },
        {
            "buffer" : 0,
            "byteLength" : 976,
            "byteOffset" : 89464
        },
        {
            "buffer" : 0,
            "byteLength" : 732,
            "byteOffset" : 90440
        },
        {
            "buffer" : 0,
            "byteLength" : 732,
            "byteOffset" : 91172
        },
        {
            "buffer" : 0,
            "byteLength" : 976,
            "byteOffset" : 91904
        },
        {
            "buffer" : 0,
            "byteLength" : 732,
            "byteOffset" : 92880
        }
    ],
    "buffers" : [
        {
            "byteLength" : 93612,
            "uri" : "data:application/octet-stream;base64,"
        }
    ]
}
